# Blender v2.93.1 OBJ File: ''
# www.blender.org
mtllib manoIzq.mtl
o Steve_Malla.002_Steve_Malla.003
v 106.117836 19.011208 3.220797
v 106.117836 19.011208 -3.220790
v 112.559418 19.011208 -3.220790
v 112.559418 19.011208 3.220797
v 106.117836 38.335964 3.220800
v 112.559418 38.335964 3.220800
v 112.559418 38.335964 -3.220787
v 106.117836 38.335964 -3.220787
vt 0.625000 0.187500
vt 0.625000 0.250000
vt 0.687500 0.250000
vt 0.687500 0.187500
vt 0.562500 0.187500
vt 0.625000 0.187500
vt 0.625000 0.250000
vt 0.562500 0.250000
vt 0.562500 0.000000
vt 0.625000 0.000000
vt 0.687500 0.000000
vt 0.687500 0.187500
vt 0.750000 0.000000
vt 0.750000 0.187500
vt 0.500000 0.000000
vt 0.500000 0.187500
vn 0.0000 -1.0000 0.0000
vn 0.0000 1.0000 0.0000
vn 0.0000 -0.0000 1.0000
vn 1.0000 0.0000 0.0000
vn 0.0000 0.0000 -1.0000
vn -1.0000 0.0000 0.0000
usemtl steve
s 1
f 1/1/1 2/2/1 3/3/1 4/4/1
f 5/5/2 6/6/2 7/7/2 8/8/2
f 1/9/3 4/10/3 6/6/3 5/5/3
f 4/10/4 3/11/4 7/12/4 6/6/4
f 3/11/5 2/13/5 8/14/5 7/12/5
f 2/15/6 1/9/6 5/5/6 8/16/6
