# Blender v2.93.1 OBJ File: ''
# www.blender.org
mtllib pieDer.mtl
o Steve_Malla.004_Steve_Malla.005
v 99.676247 -0.313550 3.220793
v 99.676247 -0.313549 -3.220793
v 106.117836 -0.313549 -3.220793
v 106.117836 -0.313550 3.220793
v 99.676247 19.011208 3.220797
v 106.117836 19.011208 3.220797
v 106.117836 19.011208 -3.220790
v 99.676247 19.011208 -3.220790
vt 0.375000 0.187500
vt 0.375000 0.250000
vt 0.437500 0.250000
vt 0.437500 0.187500
vt 0.312500 0.000000
vt 0.375000 0.000000
vt 0.375000 0.187500
vt 0.312500 0.187500
vt 0.437500 0.000000
vt 0.437500 0.187500
vt 0.500000 0.000000
vt 0.500000 0.187500
vt 0.250000 0.000000
vt 0.250000 0.187500
vn 0.0000 -1.0000 -0.0000
vn 0.0000 -0.0000 1.0000
vn 1.0000 0.0000 0.0000
vn 0.0000 0.0000 -1.0000
vn -1.0000 0.0000 0.0000
usemtl steve
s 1
f 1/1/1 2/2/1 3/3/1 4/4/1
f 1/5/2 4/6/2 6/7/2 5/8/2
f 4/6/3 3/9/3 7/10/3 6/7/3
f 3/9/4 2/11/4 8/12/4 7/10/4
f 2/13/5 1/5/5 5/8/5 8/14/5
