# Blender v2.93.1 OBJ File: ''
# www.blender.org
mtllib cuerpo.mtl
o Zombie_Malla.003
v 182.791016 22.788088 3.422233
v 182.791016 22.788088 -3.422225
v 196.479919 22.788088 -3.422225
v 196.479919 22.788088 3.422233
v 182.791016 43.321449 3.422232
v 196.479919 43.321449 3.422232
v 196.479919 43.321449 -3.422222
v 182.791016 43.321449 -3.422222
v 182.791016 43.321449 6.844460
v 182.791016 43.321449 -6.844446
v 196.479919 43.321449 -6.844446
v 196.479919 43.321449 6.844460
v 182.791016 57.010357 6.844462
v 196.479919 57.010357 6.844462
v 196.479919 57.010357 -6.844444
v 182.791016 57.010357 -6.844444
v 189.635468 2.254726 3.422230
v 189.635468 2.254727 -3.422229
v 196.479919 2.254727 -3.422229
v 196.479919 2.254726 3.422230
v 189.635468 22.788088 3.422228
v 196.479919 22.788088 3.422228
v 196.479919 22.788088 -3.422225
v 189.635468 22.788088 -3.422225
v 182.791016 2.254726 3.422230
v 182.791016 2.254727 -3.422229
v 189.635468 2.254727 -3.422229
v 189.635468 2.254726 3.422230
v 182.791016 22.788088 3.422228
v 189.635468 22.788088 3.422228
v 189.635468 22.788088 -3.422225
v 182.791016 22.788088 -3.422225
vt 0.437500 0.687500
vt 0.437500 0.750000
vt 0.562500 0.750000
vt 0.562375 0.687500
vt 0.312500 0.687500
vt 0.437500 0.687500
vt 0.437500 0.750000
vt 0.312500 0.750000
vt 0.312500 0.500000
vt 0.437500 0.500000
vt 0.500000 0.500000
vt 0.500000 0.687500
vt 0.625000 0.500000
vt 0.625000 0.687500
vt 0.250000 0.500000
vt 0.250000 0.687500
vt 0.250000 1.000000
vt 0.375000 1.000000
vt 0.375000 0.875000
vt 0.250000 0.875000
vt 0.125000 0.875000
vt 0.250000 0.875000
vt 0.250000 1.000000
vt 0.125000 1.000000
vt 0.125000 0.750000
vt 0.250000 0.750000
vt 0.375000 0.750000
vt 0.375000 0.875000
vt 0.500000 0.750000
vt 0.500000 0.875000
vt 0.000000 0.750000
vt 0.000000 0.875000
vt 0.375000 0.187500
vt 0.375000 0.250000
vt 0.437500 0.250000
vt 0.437500 0.187500
vt 0.312500 0.187500
vt 0.375000 0.187500
vt 0.375000 0.250000
vt 0.312500 0.250000
vt 0.312500 0.000000
vt 0.375000 0.000000
vt 0.437500 0.000000
vt 0.437500 0.187500
vt 0.500000 0.000000
vt 0.500000 0.187500
vt 0.250000 0.000000
vt 0.250000 0.187500
vt 0.125000 0.687500
vt 0.125000 0.750000
vt 0.187500 0.750000
vt 0.187500 0.687500
vt 0.062500 0.687500
vt 0.125000 0.687500
vt 0.125000 0.750000
vt 0.062500 0.750000
vt 0.062500 0.500000
vt 0.125000 0.500000
vt 0.187500 0.500000
vt 0.187500 0.687500
vt 0.250000 0.500000
vt 0.250000 0.687500
vt 0.000000 0.500000
vt 0.000000 0.687500
vn 0.0000 -1.0000 0.0000
vn 0.0000 1.0000 0.0000
vn 0.0000 0.0000 1.0000
vn 1.0000 0.0000 0.0000
vn 0.0000 0.0000 -1.0000
vn -1.0000 0.0000 0.0000
usemtl 02_-_Default.004
s 1
f 1/1/1 2/2/1 3/3/1 4/4/1
f 5/5/2 6/6/2 7/7/2 8/8/2
f 1/9/3 4/10/3 6/6/3 5/5/3
f 4/10/4 3/11/4 7/12/4 6/6/4
f 3/11/5 2/13/5 8/14/5 7/12/5
f 2/15/6 1/9/6 5/5/6 8/16/6
f 9/17/1 10/18/1 11/19/1 12/20/1
f 13/21/2 14/22/2 15/23/2 16/24/2
f 9/25/3 12/26/3 14/22/3 13/21/3
f 12/26/4 11/27/4 15/28/4 14/22/4
f 11/27/5 10/29/5 16/30/5 15/28/5
f 10/31/6 9/25/6 13/21/6 16/32/6
f 17/33/1 18/34/1 19/35/1 20/36/1
f 21/37/2 22/38/2 23/39/2 24/40/2
f 17/41/3 20/42/3 22/38/3 21/37/3
f 20/42/4 19/43/4 23/44/4 22/38/4
f 19/43/5 18/45/5 24/46/5 23/44/5
f 18/47/6 17/41/6 21/37/6 24/48/6
f 25/49/1 26/50/1 27/51/1 28/52/1
f 29/53/2 30/54/2 31/55/2 32/56/2
f 25/57/3 28/58/3 30/54/3 29/53/3
f 28/58/4 27/59/4 31/60/4 30/54/4
f 27/59/5 26/61/5 32/62/5 31/60/5
f 26/63/6 25/57/6 29/53/6 32/64/6
