# Blender v2.93.1 OBJ File: ''
# www.blender.org
mtllib manos.mtl
o Zombie_Malla.001
v 196.479919 22.788088 3.422233
v 196.479919 22.788088 -3.422225
v 203.324371 22.788088 -3.422225
v 203.324371 22.788088 3.422233
v 196.479919 43.321449 3.422232
v 203.324371 43.321449 3.422232
v 203.324371 43.321449 -3.422222
v 196.479919 43.321449 -3.422222
v 175.946564 22.788088 3.422233
v 175.946564 22.788088 -3.422225
v 182.791016 22.788088 -3.422225
v 182.791016 22.788088 3.422233
v 175.946564 43.321449 3.422232
v 182.791016 43.321449 3.422232
v 182.791016 43.321449 -3.422222
v 175.946564 43.321449 -3.422222
vt 0.625000 0.187500
vt 0.625000 0.250000
vt 0.687500 0.250000
vt 0.687500 0.187500
vt 0.562500 0.187500
vt 0.625000 0.187500
vt 0.625000 0.250000
vt 0.562500 0.250000
vt 0.562500 0.000000
vt 0.625000 0.000000
vt 0.687500 0.000000
vt 0.687500 0.187500
vt 0.750000 0.000000
vt 0.750000 0.187500
vt 0.500000 0.000000
vt 0.500000 0.187500
vt 0.750000 0.687500
vt 0.750000 0.750000
vt 0.812500 0.750000
vt 0.812500 0.687500
vt 0.687500 0.687500
vt 0.750000 0.687500
vt 0.750000 0.750000
vt 0.687500 0.750000
vt 0.687500 0.500000
vt 0.750000 0.500000
vt 0.812500 0.500000
vt 0.812500 0.687500
vt 0.875000 0.500000
vt 0.875000 0.687500
vt 0.625000 0.500000
vt 0.625000 0.687500
vn 0.0000 -1.0000 0.0000
vn 0.0000 1.0000 0.0000
vn 0.0000 0.0000 1.0000
vn 1.0000 -0.0000 0.0000
vn 0.0000 0.0000 -1.0000
vn -1.0000 0.0000 0.0000
usemtl 02_-_Default.004
s 1
f 1/1/1 2/2/1 3/3/1 4/4/1
f 5/5/2 6/6/2 7/7/2 8/8/2
f 1/9/3 4/10/3 6/6/3 5/5/3
f 4/10/4 3/11/4 7/12/4 6/6/4
f 3/11/5 2/13/5 8/14/5 7/12/5
f 2/15/6 1/9/6 5/5/6 8/16/6
f 9/17/1 10/18/1 11/19/1 12/20/1
f 13/21/2 14/22/2 15/23/2 16/24/2
f 9/25/3 12/26/3 14/22/3 13/21/3
f 12/26/4 11/27/4 15/28/4 14/22/4
f 11/27/5 10/29/5 16/30/5 15/28/5
f 10/31/6 9/25/6 13/21/6 16/32/6
