# 3ds Max Wavefront OBJ Exporter v0.97b - (c)2007 guruware
# File Created: 24.07.2021 01:18:54

mtllib PeachRleg.mtl

#
# object PeachRleg
#

v  -5.1915 -7.0107 -5.2261
v  -9.9342 2.7687 -0.8194
v  -5.1141 2.7691 -3.3589
v  -10.2223 -7.0112 -1.0381
v  -9.8545 -13.8158 -1.0382
v  -6.9406 -7.0109 4.2350
v  -6.5806 -13.7296 3.9381
v  -3.2765 -7.0105 4.2346
v  -3.3931 -13.7293 3.9378
v  -0.3551 -7.0102 -1.0391
v  -0.5029 -13.7290 -1.0391
v  -4.9876 -14.8310 -5.1480
v  -4.2592 -31.1434 -2.7809
v  -7.7964 -46.1563 1.9355
v  -7.0551 -42.2946 -3.0250
v  -6.1328 -44.5090 -1.0317
v  -8.2573 -45.6446 3.3956
v  -7.8816 -50.3406 5.1787
v  -7.7410 -48.3033 6.9199
v  -6.2875 -49.0700 10.1029
v  -6.3194 -45.8523 6.7260
v  -3.9677 -45.7710 8.0722
v  -5.1948 -42.3963 6.0296
v  -2.9995 -42.3961 6.0294
v  -5.1728 -31.1435 2.5317
v  -3.4306 -31.1433 2.5940
v  -5.1254 -36.1904 2.8989
v  -3.1488 -36.2527 2.9924
v  -1.2196 -35.0416 -0.3281
v  -0.7419 -43.4025 2.9842
v  -0.6643 -41.1525 -0.0016
v  -6.8606 -31.1437 -0.7728
v  -6.8524 -35.0030 -0.7728
v  -4.2042 -34.4169 -2.7184
v  -6.6022 -39.4340 -2.8118
v  -4.2040 -38.7923 -4.3557
v  -4.2027 -50.3398 -2.4811
v  -2.2812 -44.5086 -1.0321
v  -4.5856 -50.3387 -3.1595
v  -6.4612 -43.8306 -3.0828
v  -4.2035 -43.8290 -4.2219
v  -4.2037 -41.9952 -5.2006
v  -1.9534 -43.8302 -3.0832
v  -0.4916 -45.6439 3.3948
v  -0.5301 -50.3402 5.0567
v  -1.0308 -46.1556 1.9348
v  -0.9911 -48.3010 6.7904
v  -1.2259 -45.4676 5.1462
v  -2.0929 -45.8519 6.7256
v  -1.8131 -39.4336 -2.8123
v  -1.4856 -31.1432 -0.3281
v  -3.8277 -50.3386 -3.1596
v  -1.3598 -42.2941 -3.0255
v  -0.3248 2.7696 -0.8203
v  -3.3239 -1.5261 3.8987
v  -6.3811 -50.3395 10.3821
v  -7.7736 -41.1532 -0.0009
v  -7.8825 -43.4032 2.9849
v  -7.4290 -45.4682 5.1468
v  -3.9669 -49.1482 13.6775
v  -3.9667 -50.3374 14.0506
v  -2.1235 -49.0696 10.1025
v  -2.0296 -50.3391 10.3817
v  -7.1677 -1.5187 3.9850
v  -7.9649 3.3626 5.1257
v  -2.7227 3.3553 5.3049
# 66 vertices

vn -0.4593 0.1701 -0.8718
vn -0.6394 0.0360 -0.7681
vn -0.6394 -0.0346 -0.7681
vn -0.8481 -0.0458 0.5278
vn -0.8329 -0.0689 0.5492
vn 0.0001 -0.0441 0.9990
vn 0.8742 -0.0366 0.4842
vn 0.8646 -0.0190 0.5021
vn 0.6775 -0.0149 -0.7354
vn 0.6836 -0.0748 -0.7260
vn -0.3808 -0.7012 -0.6028
vn -0.9572 -0.1409 -0.2527
vn -0.9554 -0.1685 -0.2425
vn -0.9922 -0.0339 0.1198
vn -0.9035 -0.2407 0.3546
vn -0.7529 0.4729 0.4577
vn -0.3881 0.6654 0.6377
vn -0.4789 0.3205 0.8172
vn 0.0000 0.5178 0.8555
vn 0.0001 -0.0805 0.9968
vn -0.0356 -0.0768 0.9964
vn -0.0357 0.0722 0.9968
vn -0.0448 0.0752 0.9962
vn -0.0285 0.4424 0.8964
vn 0.7756 0.2948 0.5582
vn 0.8153 0.2529 0.5209
vn 0.9907 0.0952 0.0975
vn -0.6480 -0.0245 -0.7613
vn -0.6552 -0.1246 -0.7451
vn -0.6050 -0.1407 -0.7837
vn -0.6110 -0.0013 -0.7916
vn -0.5882 -0.0253 -0.8083
vn -0.6068 0.3037 -0.7345
vn -0.5717 0.2875 -0.7685
vn 0.0001 -0.2412 0.9705
vn -0.8059 -0.3797 0.4542
vn -0.9589 -0.2771 0.0619
vn -0.4472 -0.1184 -0.8866
vn -0.4064 -0.4303 -0.8061
vn 0.4075 -0.4300 -0.8057
vn 0.9443 -0.1167 -0.3078
vn 0.9799 0.0594 0.1906
vn 0.8960 0.2761 0.3478
vn 0.7767 0.3631 0.5147
vn 0.7798 0.3562 0.5148
vn 0.8096 0.3125 0.4969
vn 0.5727 0.2873 -0.7678
vn 0.6326 0.3148 -0.7076
vn 0.6300 0.0430 -0.7754
vn 0.8311 0.0567 0.5532
vn 0.8322 -0.0243 0.5539
vn 0.8640 -0.0406 0.5018
vn 0.0001 -1.0000 -0.0017
vn 0.8105 -0.3782 0.4473
vn 0.9589 -0.2769 0.0617
vn 0.9320 -0.3613 0.0295
vn 0.5827 -0.1956 -0.7888
vn 0.4621 0.1628 -0.8718
vn 0.6545 0.0149 -0.7560
vn 0.8498 -0.0144 0.5269
vn 0.8741 0.0372 0.4842
vn 0.0001 0.0611 0.9981
vn 0.0000 -0.8743 -0.4854
vn 0.0000 -0.5980 -0.8015
vn -0.0131 -0.6124 -0.7904
vn 0.0001 -1.0000 0.0002
vn -0.9759 -0.0547 -0.2113
vn -0.9780 0.1821 0.1016
vn -0.8899 0.2218 0.3986
vn -0.7501 0.3925 0.5323
vn -0.7223 0.3547 0.5938
vn -0.8268 -0.1345 0.5463
vn -0.8853 -0.1081 0.4522
vn -0.8906 -0.0019 0.4549
vn -0.9018 0.0229 0.4316
vn 0.5646 0.3028 0.7678
vn 0.3775 0.7932 0.4779
vn -0.6082 0.6799 0.4097
vn -0.8250 0.1691 0.5393
vn 0.9149 0.1693 0.3665
vn 0.9832 0.1328 0.1256
vn 0.9772 -0.1030 -0.1859
vn 0.8407 0.3882 0.3775
vn 0.9486 -0.0512 0.3124
vn 0.9544 0.1297 0.2687
vn 0.8721 0.1658 0.4604
vn 0.8784 0.1432 0.4561
vn 0.7969 0.4337 0.4205
vn -0.9177 -0.2262 0.3266
vn 0.0214 -0.2242 0.9743
vn 0.0225 0.0464 0.9987
vn -0.8490 -0.0111 0.5284
vn -0.8611 0.0140 0.5083
vn -0.9526 0.1307 0.2747
vn -0.8218 0.1795 0.5408
vn -0.6804 0.4410 0.5853
vn -0.8656 0.3305 0.3761
vn -0.9422 0.1706 -0.2883
vn -0.5632 0.1497 -0.8126
vn -0.6074 0.2026 -0.7681
vn 0.5694 0.2097 -0.7949
vn 0.6104 0.1547 -0.7769
vn 0.9442 0.1707 -0.2816
vn -0.0001 -0.1611 -0.9869
vn 0.4483 -0.1187 -0.8860
vn -0.5819 -0.1953 -0.7895
vn -0.9319 -0.3614 0.0297
vn 0.6363 -0.6453 -0.4227
vn 0.9305 0.0536 -0.3624
vn -0.9840 0.1578 0.0830
vn -0.7578 0.3416 0.5559
vn 0.9014 -0.2187 0.3738
vn -0.0332 -0.2729 0.9615
vn 0.6625 -0.0032 -0.7491
vn 0.6609 -0.0678 -0.7474
vn -0.8425 0.2501 0.4772
vn 0.9372 0.0669 -0.3422
vn -0.9386 0.0991 -0.3305
vn 0.0000 0.4504 0.8928
vn 0.6545 0.0095 -0.7560
vn 0.8471 0.0876 0.5241
vn 0.0001 -1.0000 0.0005
# 122 vertex normals

vt 0.2890 0.7128 0.0000
vt 0.2910 0.7196 0.0000
vt 0.2884 0.7209 0.0000
vt 0.2921 0.7128 0.0000
vt 0.2916 0.7071 0.0000
vt 0.2869 0.7128 0.0000
vt 0.2863 0.7072 0.0000
vt 0.2809 0.7128 0.0000
vt 0.2811 0.7072 0.0000
vt 0.2762 0.7128 0.0000
vt 0.2764 0.7072 0.0000
vt 0.2800 0.7064 0.0000
vt 0.2825 0.6926 0.0000
vt 0.2412 0.3322 0.0000
vt 0.1933 0.4450 0.0000
vt 0.2288 0.3912 0.0000
vt 0.2233 0.3157 0.0000
vt 0.2412 0.2178 0.0000
vt 0.2018 0.2305 0.0000
vt 0.1580 0.1797 0.0000
vt 0.1580 0.2693 0.0000
vt 0.1288 0.2628 0.0000
vt 0.1288 0.3068 0.0000
vt 0.2840 0.6926 0.0000
vt 0.2812 0.6926 0.0000
vt 0.2839 0.6884 0.0000
vt 0.2807 0.6883 0.0000
vt 0.2631 0.7178 0.0000
vt 0.2776 0.6893 0.0000
vt 0.2579 0.7218 0.0000
vt 0.2586 0.7297 0.0000
vt 0.2884 0.7064 0.0000
vt 0.2867 0.6926 0.0000
vt 0.2867 0.6893 0.0000
vt 0.2823 0.6897 0.0000
vt 0.2678 0.7343 0.0000
vt 0.2645 0.7354 0.0000
vt 0.9603 0.8527 0.0000
vt 0.9735 0.8290 0.0000
vt 0.9865 0.8527 0.0000
vt 0.9374 0.8290 0.0000
vt 0.9440 0.8574 0.0000
vt 0.9211 0.8585 0.0000
vt 0.9211 0.8668 0.0000
vt 0.8981 0.8574 0.0000
vt 0.1808 0.2941 0.0000
vt 0.1872 0.3322 0.0000
vt 0.2612 0.7343 0.0000
vt 0.2780 0.6926 0.0000
vt 0.9080 0.8290 0.0000
vt 0.8818 0.8290 0.0000
vt 0.8949 0.8220 0.0000
vt 0.8806 0.8550 0.0000
vt 0.9014 0.8644 0.0000
vt 0.2773 0.7196 0.0000
vt 0.2800 0.7128 0.0000
vt 0.2799 0.7209 0.0000
vt 0.2810 0.7179 0.0000
vt 0.8861 0.7936 0.0000
vt 0.9655 0.8015 0.0000
vt 0.9020 0.8015 0.0000
vt 0.9813 0.7936 0.0000
vt 0.8861 0.7778 0.0000
vt 0.9813 0.7778 0.0000
vt 0.9655 0.7621 0.0000
vt 0.1813 0.3837 0.0000
vt 0.1288 0.1543 0.0000
vt 0.1288 0.1108 0.0000
vt 0.1810 0.1325 0.0000
vt 0.2873 0.7178 0.0000
vt 0.2885 0.7214 0.0000
vt 0.1595 0.4171 0.0000
vt 0.1288 0.4268 0.0000
vt 0.1290 0.4755 0.0000
vt 0.9407 0.8644 0.0000
vt 0.2842 0.7295 0.0000
vt 0.2822 0.7336 0.0000
vt 0.2838 0.7335 0.0000
vt 0.2815 0.7275 0.0000
vt 0.2800 0.7214 0.0000
vt 0.2807 0.7326 0.0000
vt 0.2703 0.7297 0.0000
vt 0.2657 0.7178 0.0000
vt 0.9020 0.7621 0.0000
vt 0.9337 0.7543 0.0000
# 85 texture coords

o PeachRleg
g PeachRleg
usemtl m1
s off
f 1/1/1 2/2/1 3/3/1 
f 2/2/2 1/1/2 4/4/2 
f 5/5/3 4/4/3 1/1/3 
f 4/4/4 5/5/4 6/6/4 
f 7/7/5 6/6/5 5/5/5 
f 6/6/6 7/7/6 8/8/6 
f 9/9/6 8/8/6 7/7/6 
f 8/8/7 9/9/7 10/10/7 
f 11/11/8 10/10/8 9/9/8 
f 10/10/9 11/11/9 12/12/9 
f 13/13/10 12/12/10 11/11/10 
f 14/14/11 15/15/11 16/16/11 
f 15/15/12 14/14/12 17/17/12 
f 18/18/13 17/17/13 14/14/13 
f 17/17/14 18/18/14 19/19/14 
f 20/20/15 19/19/15 18/18/15 
f 19/19/16 20/20/16 21/21/16 
f 22/22/17 21/21/17 20/20/17 
f 21/21/18 22/22/18 23/23/18 
f 24/23/19 23/23/19 22/22/19 
f 25/24/20 9/9/20 7/7/20 
f 9/9/21 25/24/21 26/25/21 
f 27/26/22 26/25/22 25/24/22 
f 26/25/23 27/26/23 28/27/23 
f 24/28/24 28/27/24 27/26/24 
f 28/27/25 24/28/25 29/29/25 
f 30/30/26 29/29/26 24/28/26 
f 29/29/27 30/30/27 31/31/27 
f 12/32/28 5/5/28 1/1/28 
f 5/5/29 12/32/29 32/33/29 
f 13/13/30 32/33/30 12/32/30 
f 32/33/31 13/13/31 33/34/31 
f 34/35/32 33/34/32 13/13/32 
f 33/34/33 34/35/33 35/36/33 
f 36/37/34 35/36/34 34/35/34 
f 16/38/35 37/39/35 38/40/35 
f 37/39/36 16/38/36 39/41/36 
f 40/42/37 39/41/37 16/38/37 
f 39/41/38 40/42/38 41/43/38 
f 42/44/39 41/43/39 40/42/39 
f 41/43/40 42/44/40 43/45/40 
f 44/17/41 45/18/41 46/14/41 
f 45/18/42 44/17/42 47/19/42 
f 48/46/43 47/19/43 44/17/43 
f 47/19/44 48/46/44 49/21/44 
f 30/47/45 49/21/45 48/46/45 
f 49/21/46 30/47/46 24/23/46 
f 34/35/47 50/48/47 36/37/47 
f 50/48/48 34/35/48 29/29/48 
f 51/49/49 29/29/49 34/35/49 
f 29/29/50 51/49/50 26/25/50 
f 11/11/51 26/25/51 51/49/51 
f 26/25/52 11/11/52 9/9/52 
f 52/50/53 37/51/53 39/52/53 
f 37/51/54 52/50/54 38/53/54 
f 43/45/55 38/53/55 52/50/55 
f 38/53/56 43/45/56 53/54/56 
f 42/44/57 53/54/57 43/45/57 
f 54/55/58 1/56/58 3/57/58 
f 1/56/59 54/55/59 10/10/59 
f 55/58/60 10/10/60 54/55/60 
f 10/10/61 55/58/61 8/8/61 
f 6/6/62 8/8/62 55/58/62 
f 46/59/63 16/60/63 38/61/63 
f 16/60/63 46/59/63 14/62/63 
f 45/63/64 14/62/64 46/59/64 
f 14/62/65 45/63/65 18/64/65 
f 56/65/66 18/64/66 45/63/66 
f 17/17/67 57/66/67 15/15/67 
f 57/66/68 17/17/68 58/47/68 
f 59/46/69 58/47/69 17/17/69 
f 58/47/70 59/46/70 23/23/70 
f 21/21/71 23/23/71 59/46/71 
f 32/33/72 7/7/72 5/5/72 
f 7/7/73 32/33/73 25/24/73 
f 33/34/74 25/24/74 32/33/74 
f 25/24/75 33/34/75 27/26/75 
f 22/22/76 49/21/76 24/23/76 
f 49/21/77 22/22/77 60/67/77 
f 20/20/78 60/67/78 22/22/78 
f 60/67/79 20/20/79 61/68/79 
f 44/17/80 30/47/80 48/46/80 
f 30/47/81 44/17/81 31/66/81 
f 53/15/82 31/66/82 44/17/82 
f 62/20/83 47/19/83 49/21/83 
f 47/19/84 62/20/84 45/18/84 
f 63/69/85 45/18/85 62/20/85 
f 62/20/86 61/68/86 63/69/86 
f 61/68/87 62/20/87 60/67/87 
f 49/21/88 60/67/88 62/20/88 
f 64/70/89 65/71/89 2/2/89 
f 65/71/90 64/70/90 55/58/90 
f 6/6/91 55/58/91 64/70/91 
f 64/70/92 4/4/92 6/6/92 
f 4/4/93 64/70/93 2/2/93 
f 56/69/94 20/20/94 18/18/94 
f 20/20/95 56/69/95 61/68/95 
f 59/46/96 19/19/96 21/21/96 
f 19/19/97 59/46/97 17/17/97 
f 35/72/98 15/15/98 57/66/98 
f 15/15/99 35/72/99 36/73/99 
f 36/73/100 42/74/100 15/15/100 
f 42/74/101 36/73/101 50/72/101 
f 50/72/102 53/15/102 42/74/102 
f 53/15/103 50/72/103 31/66/103 
f 41/43/104 52/50/104 39/41/104 
f 52/50/105 41/43/105 43/45/105 
f 40/42/106 15/75/106 42/44/106 
f 15/75/107 40/42/107 16/38/107 
f 44/17/108 38/16/108 53/15/108 
f 38/16/109 44/17/109 46/14/109 
f 58/76/110 33/77/110 57/78/110 
f 33/77/111 58/76/111 23/79/111 
f 66/80/112 55/58/112 54/55/112 
f 55/58/113 66/80/113 65/71/113 
f 13/13/114 51/49/114 34/35/114 
f 51/49/115 13/13/115 11/11/115 
f 23/79/116 27/81/116 33/77/116 
f 29/29/117 31/31/117 50/48/117 
f 35/36/118 57/82/118 33/34/118 
f 27/26/119 23/83/119 24/28/119 
f 12/12/120 1/56/120 10/10/120 
f 26/25/121 28/27/121 29/29/121 
f 56/65/66 45/63/66 63/84/66 
f 61/85/122 56/65/122 63/84/122 
# 125 faces

