# 3ds Max Wavefront OBJ Exporter v0.99 - (c)2007 guruware
# File Created: 20.07.2021 13:27:55

mtllib brazoIzq.mtl

#
# object Toad
#

v  -0.8017 -0.0195 -0.1958
v  -1.7605 -0.0764 0.0648
v  -1.7705 -0.1054 -0.4135
v  -1.8815 -0.1544 0.3019
v  -1.7726 0.1619 0.3923
v  -2.0022 -0.0886 -0.2569
v  -2.0038 0.1204 0.3731
v  -0.8026 0.1020 0.1704
v  -0.4808 0.0038 -0.0077
v  -0.8271 0.3016 -0.1073
v  -0.8128 0.0973 -0.2346
v  -0.8137 0.2188 0.1316
v  -1.8004 0.4539 0.2954
v  -2.2956 0.3149 0.0964
v  -2.3078 -0.0975 0.1845
v  -2.3074 -0.1559 0.0087
v  -1.7983 0.1866 -0.5104
v  -2.2948 0.2177 -0.1966
v  -1.8243 0.5806 -0.2021
# 19 vertices

vn 0.2972 -0.7947 -0.5293
vn -0.0065 -0.9734 0.2291
vn -0.0069 -0.7550 -0.6557
vn -0.0025 -0.7377 0.6751
vn 0.2652 -0.2056 0.9420
vn -0.3764 -0.8505 -0.3674
vn -0.3406 -0.4607 0.8196
vn 0.3074 -0.1613 0.9378
vn 0.9772 -0.2052 0.0545
vn 0.4876 0.8561 -0.1710
vn 0.4038 0.1440 -0.9035
vn 0.4758 0.6325 0.6111
vn 0.0094 0.6924 0.7215
vn -0.8312 0.4670 0.3017
vn -0.6992 -0.3798 0.6057
vn -0.6353 -0.7692 -0.0688
vn -0.2567 0.0527 -0.9651
vn -0.7850 0.1448 -0.6023
vn -0.1398 0.8908 -0.4324
# 19 vertex normals

vt 0.2368 0.9292 0.0000
vt 0.2368 0.8042 0.0000
vt 0.1118 0.8042 0.0000
# 3 texture coords

o Toad
g Toad
usemtl toad_toad_toad_Material02
s 1
f 1/1/1 2/2/2 3/3/3 
f 4/3/4 2/1/2 5/2/5 
f 3/3/3 2/1/2 6/2/6 
f 7/1/7 2/2/2 4/3/4 
f 8/1/8 2/2/2 9/3/9 
f 5/3/5 2/1/2 8/2/8 
f 9/3/9 2/1/2 1/2/1 
f 6/3/6 2/1/2 7/2/7 
f 10/3/10 9/1/9 11/2/11 
f 12/3/12 8/1/8 9/2/9 
f 1/3/1 11/1/11 9/2/9 
f 9/3/9 10/1/10 12/2/12 
f 5/3/5 8/1/8 13/2/13 
f 8/3/8 12/1/12 13/2/13 
f 5/3/5 7/1/7 4/2/4 
f 5/3/5 13/1/13 7/2/7 
f 11/3/11 1/1/1 3/2/3 
f 12/3/12 10/1/10 13/2/13 
f 13/3/13 14/1/14 7/2/7 
f 15/3/15 16/1/16 7/2/7 
f 16/3/16 6/1/6 7/2/7 
f 15/3/15 7/1/7 14/2/14 
f 17/3/17 6/1/6 18/2/18 
f 3/3/3 6/1/6 17/2/17 
f 16/3/16 18/1/18 6/2/6 
f 14/3/14 18/1/18 16/2/16 
f 15/3/15 14/1/14 16/2/16 
f 18/3/18 14/1/14 19/2/19 
f 19/3/19 14/1/14 13/2/13 
f 17/3/17 11/1/11 3/2/3 
f 18/3/18 19/1/19 17/2/17 
f 17/3/17 19/1/19 11/2/11 
f 10/3/10 19/1/19 13/2/13 
f 19/3/19 10/1/10 11/2/11 
# 34 faces

