# 3ds Max Wavefront OBJ Exporter v0.99 - (c)2007 guruware
# File Created: 20.07.2021 12:48:52

mtllib cabeza.mtl

#
# object Toad
#

v  1.2976 3.3136 -2.3826
v  2.4843 3.9692 -0.6171
v  3.0517 3.2476 -0.3387
v  0.7681 4.8475 0.1697
v  0.1161 4.6545 -0.8511
v  -0.5160 4.8457 0.1867
v  1.4335 4.4759 -0.7984
v  -2.2349 3.9680 -0.5953
v  -1.0537 3.3120 -2.3641
v  -1.3542 2.4477 -2.5392
v  -2.8015 3.2638 -0.3288
v  -1.3539 1.6456 -2.2395
v  1.5811 1.6451 -2.2434
v  1.2986 1.0858 -1.5380
v  -1.0527 1.0861 -1.5348
v  1.5807 2.4319 -2.5451
v  2.4854 1.7587 0.2143
v  1.3042 2.4147 1.9830
v  0.6859 1.8815 1.1824
v  -0.4314 1.8817 1.1839
v  3.0520 2.4781 -0.0503
v  1.6047 3.2943 2.1601
v  -1.0471 2.4131 2.0015
v  1.3849 1.5379 0.3581
v  0.6832 1.1678 -0.4989
v  -1.0481 4.6409 1.1569
v  -1.1845 4.4744 -0.7795
v  1.3032 4.6406 1.1537
v  -1.3306 4.0816 1.8624
v  1.6043 4.0811 1.8584
v  -1.3302 3.2948 2.1641
v  -0.5191 4.1068 -1.7781
v  -2.8012 2.4791 -0.0424
v  -2.2338 1.7574 0.2360
v  -0.9831 1.4810 0.3227
v  -0.4341 1.1680 -0.4974
v  0.7650 4.1066 -1.7799
v  -0.8150 1.2576 1.1961
v  -1.1666 0.9354 0.3293
v  -0.5983 0.7311 1.1735
v  -0.5826 0.4074 0.5551
v  0.1184 0.2440 0.9687
v  0.1192 0.7408 1.4541
v  0.1195 1.4082 1.5882
v  0.8525 0.7309 1.1716
v  0.1196 1.8102 1.6097
v  1.0694 1.2573 1.1935
v  1.4182 0.9349 0.3258
v  0.8348 0.4072 0.5532
v  -0.8148 1.9962 1.2617
v  0.1194 2.3393 1.4922
v  1.0696 1.9959 1.2591
v  -0.3667 0.3704 0.0052
v  -0.8174 0.7613 -0.3634
v  0.1163 0.3000 -0.4095
v  -1.3168 1.6449 0.1422
v  1.5681 1.6444 0.1383
v  -0.9013 1.3165 -0.6797
v  0.1156 0.6530 -0.8458
v  0.6172 0.3703 0.0038
v  0.1153 1.1522 -1.0918
v  1.0669 0.7610 -0.3659
v  1.1499 1.3162 -0.6825
# 63 vertices

vn 0.3555 0.5012 -0.7889
vn 0.6650 0.7081 -0.2377
vn 0.9534 0.2856 -0.0966
vn 0.1268 0.9918 -0.0178
vn -0.0037 0.9360 -0.3521
vn -0.2267 0.9716 -0.0684
vn 0.3518 0.8936 -0.2789
vn -0.6610 0.6930 -0.2878
vn -0.3077 0.4967 -0.8116
vn -0.4655 0.0016 -0.8851
vn -0.9523 0.2823 -0.1154
vn -0.4911 -0.5727 -0.6563
vn 0.4630 -0.5774 -0.6725
vn 0.2317 -0.9560 -0.1802
vn -0.3253 -0.9367 -0.1293
vn 0.4868 -0.0014 -0.8735
vn 0.5504 -0.7964 0.2505
vn 0.3187 -0.6451 0.6944
vn 0.1493 -0.8445 0.5142
vn -0.0396 -0.8484 0.5279
vn 0.9519 -0.2929 0.0903
vn 0.4923 -0.0041 0.8704
vn -0.2054 -0.6157 0.7608
vn 0.2504 -0.9118 0.3256
vn 0.0857 -0.9884 0.1250
vn -0.3563 0.8967 0.2625
vn -0.3570 0.8542 -0.3780
vn 0.3063 0.9073 0.2879
vn -0.4867 0.5733 0.6592
vn 0.4656 0.5809 0.6677
vn -0.4646 0.0129 0.8854
vn -0.1323 0.7575 -0.6393
vn -0.9531 -0.2768 0.1227
vn -0.5565 -0.7565 0.3436
vn -0.2033 -0.8987 0.3886
vn -0.1632 -0.9722 0.1679
vn 0.2221 0.7780 -0.5878
vn -0.6915 -0.1377 0.7092
vn -0.8529 -0.5146 0.0883
vn -0.5549 -0.5042 0.6617
vn -0.5467 -0.8266 0.1337
vn -0.0032 -0.9573 0.2892
vn -0.0025 -0.4719 0.8816
vn -0.0020 -0.1499 0.9887
vn 0.5525 -0.5057 0.6626
vn -0.0016 0.0270 0.9996
vn 0.6912 -0.1377 0.7094
vn 0.9019 -0.4278 0.0590
vn 0.5614 -0.8233 0.0836
vn -0.5900 0.0320 0.8067
vn -0.0010 0.2168 0.9762
vn 0.5891 0.0320 0.8074
vn -0.4452 -0.8838 -0.1439
vn -0.6740 -0.5990 -0.4323
vn -0.0701 -0.9358 -0.3455
vn -0.9824 -0.1844 0.0308
vn 0.9784 -0.1350 0.1566
vn -0.6340 -0.4169 -0.6514
vn 0.0162 -0.6620 -0.7493
vn 0.4023 -0.8799 -0.2529
vn 0.1698 -0.4695 -0.8665
vn 0.6086 -0.6350 -0.4757
vn 0.7777 -0.3776 -0.5026
# 63 vertex normals

vt 0.6306 0.3914 0.0000
vt 0.7556 0.5164 0.0000
vt 0.7556 0.3914 0.0000
vt 0.4452 0.4609 0.0000
vt 0.3723 0.1973 0.0000
vt 0.2125 0.2669 0.0000
vt 0.0661 0.1997 0.0000
vt 0.6517 0.4650 0.0000
vt 0.5615 0.1352 0.0000
vt 0.0641 0.0563 0.0000
vt 0.1502 0.5263 0.0000
vt 0.1136 0.5577 0.0000
vt 0.2107 0.5216 0.0000
vt 0.0640 0.4860 0.0000
vt 0.1286 0.4866 0.0000
vt 0.4684 0.1626 0.0000
vt 0.3432 0.0967 0.0000
vt 0.2321 0.1278 0.0000
vt 0.6120 0.3370 0.0000
vt 0.5829 0.1872 0.0000
vt 0.4380 0.2824 0.0000
vt 0.7111 0.2803 0.0000
vt 0.6903 0.2093 0.0000
vt 0.5557 0.1440 0.0000
vt 0.6918 0.2983 0.0000
vt 0.4537 0.1481 0.0000
vt 0.3374 0.1961 0.0000
vt 0.6344 0.3835 0.0000
vt 0.2575 0.2610 0.0000
vt 0.5545 0.4484 0.0000
vt 0.2312 0.3293 0.0000
vt 0.2941 0.3763 0.0000
vt 0.2186 0.1225 0.0000
vt 0.6071 0.4752 0.0000
vt 0.3954 0.1412 0.0000
vt 0.7365 0.3367 0.0000
vt 0.7758 0.2567 0.0000
vt 0.3728 0.0461 0.0000
vt 0.2667 0.1225 0.0000
vt 0.6294 0.4130 0.0000
vt 0.1864 0.2376 0.0000
vt 0.4621 0.4465 0.0000
vt 0.5356 0.3934 0.0000
vt 0.1947 0.2625 0.0000
vt 0.4775 0.4705 0.0000
vt 0.2460 0.4878 0.0000
vt 0.3101 0.4886 0.0000
vt 0.2224 0.4535 0.0000
vt 0.2610 0.4166 0.0000
vt 0.1639 0.4534 0.0000
vt 0.1380 0.4160 0.0000
vt 0.2682 0.2095 0.0000
vt 0.6000 0.3094 0.0000
vt 0.3850 0.1618 0.0000
vt 0.7384 0.3734 0.0000
vt 0.4304 0.0809 0.0000
vt 0.2993 0.1545 0.0000
vt 0.6069 0.4474 0.0000
vt 0.2106 0.2502 0.0000
vt 0.4583 0.4845 0.0000
vt 0.6426 0.2117 0.0000
vt 0.5230 0.1300 0.0000
vt 0.4763 0.3159 0.0000
vt 0.6070 0.1450 0.0000
vt 0.3436 0.1572 0.0000
vt 0.7302 0.3090 0.0000
vt 0.3523 0.4613 0.0000
vt 0.1135 0.1748 0.0000
vt 0.4668 0.4659 0.0000
vt 0.6115 0.4114 0.0000
vt 0.2121 0.2631 0.0000
vt 0.6101 0.3010 0.0000
vt 0.3914 0.1479 0.0000
vt 0.2779 0.2001 0.0000
vt 0.6391 0.2001 0.0000
vt 0.5498 0.3909 0.0000
vt 0.1980 0.2616 0.0000
vt 0.4700 0.4524 0.0000
vt 0.7182 0.3367 0.0000
vt 0.4011 0.0839 0.0000
vt 0.2940 0.1589 0.0000
vt 0.4709 0.8387 0.0000
vt 0.4279 0.9109 0.0000
vt 0.5534 0.9217 0.0000
vt 0.5695 0.9539 0.0000
vt 0.7156 0.9376 0.0000
vt 0.6844 0.8635 0.0000
vt 0.6464 0.7739 0.0000
vt 0.8395 0.8613 0.0000
vt 0.6226 0.7189 0.0000
vt 0.8438 0.7596 0.0000
vt 0.9360 0.8037 0.0000
vt 0.8509 0.8940 0.0000
vt 0.4284 0.7395 0.0000
vt 0.5934 0.6499 0.0000
vt 0.8026 0.6602 0.0000
vt 0.2613 0.9174 0.0000
vt 0.3188 0.8503 0.0000
vt 0.3507 0.9192 0.0000
vt 0.3586 0.8282 0.0000
vt 0.9292 0.7072 0.0000
vt 0.1435 0.9210 0.0000
vt 0.1612 0.8355 0.0000
vt 0.0640 0.9532 0.0000
vt 0.1659 0.7242 0.0000
vt 0.3600 0.7595 0.0000
vt 0.4280 0.8584 0.0000
vt 0.4518 0.7762 0.0000
# 108 texture coords

o Toad
g Toad
usemtl toad_toad_toad_Material02
s 1
f 1/1/1 2/2/2 3/3/3 
f 4/1/4 5/2/5 6/3/6 
f 7/1/7 5/2/5 4/3/4 
f 8/1/8 9/2/9 10/3/10 
f 11/1/11 8/2/8 10/3/10 
f 12/1/12 13/2/13 14/3/14 
f 15/1/15 12/2/12 14/3/14 
f 16/1/16 1/2/1 3/3/3 
f 17/4/17 18/5/18 19/6/19 
f 19/6/19 18/5/18 20/7/20 
f 17/4/17 21/8/21 18/5/18 
f 21/8/21 22/9/22 18/5/18 
f 18/5/18 23/10/23 20/7/20 
f 18/5/18 22/9/22 23/10/23 
f 24/11/24 17/12/17 19/13/19 
f 14/14/14 17/12/17 24/11/24 
f 25/15/25 14/14/14 24/11/24 
f 26/16/26 8/17/8 11/18/11 
f 6/19/6 5/20/5 27/21/27 
f 28/22/28 4/23/4 26/16/26 
f 4/23/4 6/24/6 26/16/26 
f 28/25/28 26/26/26 29/27/29 
f 30/28/30 28/25/28 29/27/29 
f 30/28/30 29/27/29 31/29/31 
f 22/30/22 30/28/30 31/29/31 
f 22/30/22 31/29/31 23/31/23 
f 6/19/6 27/21/27 8/32/8 
f 8/32/8 27/21/27 9/33/9 
f 26/34/26 6/19/6 8/32/8 
f 27/21/27 5/20/5 32/35/32 
f 29/36/29 26/37/26 11/38/11 
f 29/36/29 11/38/11 33/39/33 
f 31/40/31 29/36/29 33/39/33 
f 31/40/31 33/39/33 34/41/34 
f 27/21/27 32/35/32 9/33/9 
f 21/42/21 3/43/3 22/44/22 
f 23/45/23 31/40/31 34/41/34 
f 20/46/20 23/47/23 35/48/35 
f 23/47/23 34/49/34 35/48/35 
f 35/48/35 34/49/34 36/50/36 
f 34/49/34 15/51/15 36/50/36 
f 3/43/3 30/52/30 22/44/22 
f 36/50/36 15/51/15 25/15/25 
f 3/43/3 2/53/2 30/52/30 
f 2/53/2 28/54/28 30/52/30 
f 11/55/11 10/56/10 12/57/12 
f 33/58/33 11/55/11 12/57/12 
f 33/58/33 12/57/12 15/59/15 
f 34/60/34 33/58/33 15/59/15 
f 15/51/15 14/14/14 25/15/25 
f 2/53/2 7/61/7 28/54/28 
f 7/61/7 4/62/4 28/54/28 
f 37/63/37 5/64/5 7/65/7 
f 32/66/32 37/63/37 1/67/1 
f 1/67/1 37/63/37 2/68/2 
f 37/63/37 7/65/7 2/68/2 
f 32/66/32 5/64/5 37/63/37 
f 14/69/14 13/70/13 17/71/17 
f 9/72/9 1/73/1 16/74/16 
f 9/72/9 32/75/32 1/73/1 
f 10/76/10 9/72/9 16/74/16 
f 10/76/10 16/74/16 13/77/13 
f 12/78/12 10/76/10 13/77/13 
f 16/79/16 3/80/3 21/81/21 
f 13/70/13 16/79/16 21/81/21 
f 13/70/13 21/81/21 17/71/17 
f 38/82/38 39/83/39 40/84/40 
f 40/84/40 41/85/41 42/86/42 
f 41/85/41 40/84/40 39/83/39 
f 43/87/43 44/88/44 40/84/40 
f 43/87/43 40/84/40 42/86/42 
f 38/82/38 40/84/40 44/88/44 
f 43/87/43 45/89/45 44/88/44 
f 45/89/45 43/87/43 42/86/42 
f 44/88/44 46/90/46 38/82/38 
f 44/88/44 47/91/47 46/90/46 
f 47/91/47 44/88/44 45/89/45 
f 47/91/47 45/89/45 48/92/48 
f 49/93/49 45/89/45 42/86/42 
f 49/93/49 48/92/48 45/89/45 
f 50/94/50 38/82/38 46/90/46 
f 51/95/51 46/90/46 52/96/52 
f 52/96/52 46/90/46 47/91/47 
f 46/90/46 51/95/51 50/94/50 
f 53/97/53 54/98/54 55/99/55 
f 50/94/50 56/100/56 38/82/38 
f 39/83/39 38/82/38 56/100/56 
f 52/96/52 47/91/47 57/101/57 
f 48/92/48 57/101/57 47/91/47 
f 41/102/41 39/103/39 53/97/53 
f 41/102/41 53/97/53 42/104/42 
f 39/103/39 54/98/54 53/97/53 
f 53/97/53 55/99/55 42/104/42 
f 39/103/39 56/105/56 54/98/54 
f 56/105/56 58/106/58 54/98/54 
f 54/98/54 59/107/59 55/99/55 
f 54/98/54 58/106/58 59/107/59 
f 55/99/55 60/97/60 42/104/42 
f 60/97/60 49/102/49 42/104/42 
f 58/106/58 61/108/61 59/107/59 
f 55/99/55 59/107/59 60/97/60 
f 59/107/59 62/98/62 60/97/60 
f 59/107/59 61/108/61 62/98/62 
f 61/108/61 63/106/63 62/98/62 
f 60/97/60 62/98/62 49/102/49 
f 62/98/62 48/103/48 49/102/49 
f 62/98/62 63/106/63 48/103/48 
f 63/106/63 57/105/57 48/103/48 
# 108 faces

