# 3ds Max Wavefront OBJ Exporter v0.99 - (c)2007 guruware
# File Created: 20.07.2021 12:48:35

mtllib cuerpo.mtl

#
# object Toad
#

v  1.0681 -0.1428 0.4854
v  0.4678 0.5734 0.4053
v  0.6018 -0.1675 0.9020
v  -0.3487 -0.1674 0.9033
v  0.4668 0.6121 -0.2418
v  1.0670 -0.0986 -0.2542
v  -0.2159 0.5736 0.4063
v  -0.2169 0.6122 -0.2409
v  0.5995 -0.0755 -0.6387
v  -0.3511 -0.0753 -0.6374
v  -0.8163 -0.1425 0.4880
v  -0.8174 -0.0983 -0.2516
v  -0.4516 -0.8991 -0.8257
v  0.6991 -0.8992 -0.8272
v  0.8497 -1.2939 -0.4336
v  1.3014 -0.7927 0.4926
v  0.7020 -0.8257 1.0481
v  0.8513 -1.3556 0.5987
v  1.3002 -0.8200 -0.3440
v  -0.5995 -1.3554 0.6007
v  -0.4486 -0.8256 1.0497
v  -1.0511 -0.8196 -0.3408
v  -0.6011 -1.2937 -0.4316
v  -1.0498 -0.7923 0.4958
v  -0.8995 -0.0246 0.5866
v  -0.9008 0.0260 -0.2608
v  -1.2177 -0.7933 -0.2630
v  0.7168 0.6793 -0.3322
v  0.6326 0.0561 -0.7713
v  -0.4672 0.6795 -0.3306
v  0.7180 0.5063 0.4925
v  1.1517 -0.0250 0.5838
v  1.1504 0.0257 -0.2636
v  0.5519 0.0011 0.9264
v  1.4683 -0.7818 0.5691
v  1.4670 -0.7938 -0.2666
v  0.7821 -0.7920 -1.0696
v  0.7855 -0.7369 1.1139
v  -1.2165 -0.7814 0.5727
v  -0.3846 0.0563 -0.7699
v  -0.4659 0.5065 0.4941
v  -0.2986 0.0012 0.9275
v  -0.5319 -0.7367 1.1157
v  -0.5353 -0.7918 -1.0678
# 44 vertices

vn 0.8130 0.4947 0.3072
vn 0.2692 0.8345 0.4808
vn 0.3475 0.3582 0.8666
vn -0.2649 0.4505 0.8526
vn 0.5283 0.7800 -0.3354
vn 0.8329 0.4042 -0.3780
vn -0.5053 0.7770 0.3755
vn -0.2860 0.8424 -0.4567
vn 0.2664 0.4144 -0.8702
vn -0.3335 0.3473 -0.8765
vn -0.8348 0.4017 0.3765
vn -0.8240 0.4962 -0.2737
vn -0.2965 -0.3264 -0.8975
vn 0.3667 -0.0344 -0.9297
vn 0.2649 -0.8640 -0.4281
vn 0.9159 0.0227 0.4008
vn 0.3180 -0.2829 0.9049
vn 0.5342 -0.7833 0.3180
vn 0.9005 -0.2674 -0.3430
vn -0.2967 -0.8631 0.4088
vn -0.3876 -0.0196 0.9216
vn -0.9100 0.0066 -0.4145
vn -0.5093 -0.7932 -0.3339
vn -0.9137 -0.2577 0.3143
vn -0.7910 0.4384 0.4268
vn -0.8599 0.4507 -0.2398
vn -0.8831 0.3402 -0.3232
vn 0.6891 0.6151 -0.3831
vn 0.2984 0.4706 -0.8304
vn -0.4600 0.6109 -0.6444
vn 0.6693 0.5845 0.4587
vn 0.7880 0.4799 0.3858
vn 0.8632 0.3886 -0.3224
vn 0.5466 0.3474 0.7619
vn 0.8364 0.3442 0.4266
vn 0.8927 0.3205 -0.3167
vn 0.3949 0.3471 -0.8506
vn 0.6238 0.3591 0.6941
vn -0.8586 0.3256 0.3959
vn -0.3911 0.3965 -0.8305
vn -0.7524 0.5782 0.3156
vn -0.4888 0.4183 0.7656
vn -0.5743 0.2934 0.7642
vn -0.4089 0.3616 -0.8379
# 44 vertex normals

vt 0.3562 0.7739 0.0000
vt 0.4187 0.8364 0.0000
vt 0.4187 0.7739 0.0000
vt 0.7130 0.4347 0.0000
vt 0.7755 0.4972 0.0000
vt 0.7755 0.4347 0.0000
vt 0.9468 0.4659 0.0000
vt 0.9800 0.4970 0.0000
vt 0.9800 0.4659 0.0000
# 9 texture coords

o Toad
g Toad
usemtl toad_toad_toad_Material02
s 1
f 1/1/1 2/2/2 3/3/3 
f 4/1/4 3/2/3 2/3/2 
f 2/1/2 1/2/1 5/3/5 
f 1/1/1 6/2/6 5/3/5 
f 7/1/7 2/2/2 8/3/8 
f 2/1/2 5/2/5 8/3/8 
f 7/1/7 4/2/4 2/3/2 
f 9/1/9 5/2/5 6/3/6 
f 9/1/9 10/2/10 8/3/8 
f 5/1/5 9/2/9 8/3/8 
f 4/1/4 7/2/7 11/3/11 
f 12/1/12 11/2/11 7/3/7 
f 8/1/8 12/2/12 7/3/7 
f 12/1/12 8/2/8 10/3/10 
f 13/4/13 14/5/14 15/6/15 
f 1/4/1 3/5/3 16/6/16 
f 3/4/3 17/5/17 16/6/16 
f 17/4/17 18/5/18 16/6/16 
f 19/4/19 16/5/16 18/6/18 
f 6/4/6 1/5/1 16/6/16 
f 19/4/19 6/5/6 16/6/16 
f 18/4/18 17/5/17 20/6/20 
f 17/4/17 21/5/21 20/6/20 
f 17/4/17 3/5/3 21/6/21 
f 15/4/15 19/5/19 18/6/18 
f 18/4/18 20/5/20 15/6/15 
f 10/4/10 9/5/9 14/6/14 
f 13/4/13 10/5/10 14/6/14 
f 19/4/19 15/5/15 14/6/14 
f 9/4/9 6/5/6 14/6/14 
f 6/4/6 19/5/19 14/6/14 
f 11/4/11 12/5/12 22/6/22 
f 20/4/20 23/5/23 15/6/15 
f 23/4/23 13/5/13 15/6/15 
f 4/4/4 11/5/11 21/6/21 
f 11/4/11 24/5/24 21/6/21 
f 3/4/3 4/5/4 21/6/21 
f 24/4/24 20/5/20 21/6/21 
f 20/4/20 24/5/24 23/6/23 
f 24/4/24 22/5/22 23/6/23 
f 24/4/24 11/5/11 22/6/22 
f 13/4/13 22/5/22 10/6/10 
f 22/4/22 12/5/12 10/6/10 
f 13/4/13 23/5/23 22/6/22 
f 25/7/25 26/8/26 27/9/27 
f 28/7/28 29/8/29 30/9/30 
f 31/7/31 32/8/32 28/9/28 
f 32/7/32 33/8/33 28/9/28 
f 29/7/29 28/8/28 33/9/33 
f 32/7/32 31/8/31 34/9/34 
f 33/7/33 32/8/32 35/9/35 
f 32/7/32 34/8/34 35/9/35 
f 36/7/36 33/8/33 35/9/35 
f 33/7/33 36/8/36 37/9/37 
f 29/7/29 33/8/33 37/9/37 
f 34/7/34 38/8/38 35/9/35 
f 39/7/39 25/8/25 27/9/27 
f 27/7/27 26/8/26 40/9/40 
f 26/7/26 25/8/25 41/9/41 
f 42/7/42 41/8/41 25/9/25 
f 42/7/42 25/8/25 43/9/43 
f 30/7/30 26/8/26 41/9/41 
f 44/7/44 40/8/40 37/9/37 
f 40/7/40 29/8/29 37/9/37 
f 29/7/29 40/8/40 30/9/30 
f 25/7/25 39/8/39 43/9/43 
f 26/7/26 30/8/30 40/9/40 
f 44/7/44 27/8/27 40/9/40 
# 68 faces

