# 3ds Max Wavefront OBJ Exporter v0.99 - (c)2007 guruware
# File Created: 20.07.2021 12:57:47

mtllib pieDer.mtl

#
# object Toad
#

v  1.4272 -1.6671 1.4271
v  1.5651 -1.1610 0.9364
v  1.3170 -1.1746 1.3526
v  0.7378 -1.1912 1.4169
v  0.6825 -1.6884 1.5098
v  1.7560 -1.6509 0.9864
v  1.4557 -1.6463 0.2269
v  1.1226 -1.6491 -0.1402
v  0.2500 -1.6941 1.1536
v  0.3469 -1.6781 0.3501
v  0.5764 -1.6648 -0.0796
v  0.3901 -1.1947 1.0669
v  0.4502 -1.2737 0.3439
v  0.6254 -1.3249 -0.0028
v  1.0723 -1.3121 -0.0524
v  1.3273 -1.2485 0.2465
v  1.1074 -1.1004 0.2730
v  0.6713 -0.9076 0.9771
v  1.2505 -0.8910 0.9128
v  0.6605 -1.1132 0.3226
# 20 vertices

vn 0.3262 -0.8224 0.4661
vn 0.8766 0.4745 0.0807
vn 0.3796 0.6436 0.6646
vn -0.3154 0.4483 0.8364
vn -0.2727 -0.3331 0.9026
vn 0.9704 -0.2146 0.1108
vn 0.8412 -0.2295 -0.4897
vn 0.2914 -0.6503 -0.7016
vn -0.9027 -0.2900 0.3177
vn -0.7316 -0.6413 -0.2312
vn -0.5378 -0.3085 -0.7846
vn -0.8042 0.5718 0.1624
vn -0.8685 0.4091 -0.2800
vn -0.4062 0.6406 -0.6516
vn 0.3069 0.4901 -0.8158
vn 0.6875 0.5717 -0.4478
vn 0.1162 0.8879 -0.4451
vn -0.2662 0.9513 0.1556
vn 0.4084 0.9127 -0.0130
vn -0.4609 0.8244 -0.3284
# 20 vertex normals

vt 0.8785 0.5305 0.0000
vt 0.9201 0.5697 0.0000
vt 0.8809 0.5686 0.0000
vt 0.8586 0.5673 0.0000
vt 0.8498 0.5288 0.0000
vt 0.9220 0.5317 0.0000
vt 0.9710 0.5321 0.0000
vt 0.9891 0.5319 0.0000
vt 0.8640 0.5284 0.0000
vt 0.9283 0.5296 0.0000
vt 0.9680 0.5307 0.0000
vt 0.8749 0.5670 0.0000
vt 0.9319 0.5609 0.0000
vt 0.9637 0.5570 0.0000
vt 0.9809 0.5580 0.0000
vt 0.9657 0.5629 0.0000
vt 0.9571 0.5743 0.0000
vt 0.8902 0.5893 0.0000
vt 0.9125 0.5905 0.0000
vt 0.9398 0.5734 0.0000
# 20 texture coords

o Toad
g Toad
usemtl toad_toad_toad_Material02
s 1
f 1/1/1 2/2/2 3/3/3 
f 1/1/1 4/4/4 5/5/5 
f 1/1/1 3/3/3 4/4/4 
f 1/1/1 6/6/6 2/2/2 
f 1/1/1 7/7/7 6/6/6 
f 1/1/1 8/8/8 7/7/7 
f 1/1/1 5/5/5 9/9/9 
f 1/1/1 9/9/9 10/10/10 
f 1/1/1 10/10/10 11/11/11 
f 1/1/1 11/11/11 8/8/8 
f 9/9/9 12/12/12 13/13/13 
f 9/9/9 13/13/13 10/10/10 
f 9/9/9 4/4/4 12/12/12 
f 9/9/9 5/5/5 4/4/4 
f 11/11/11 10/10/10 13/13/13 
f 7/7/7 2/2/2 6/6/6 
f 11/11/11 14/14/14 15/15/15 
f 11/11/11 15/15/15 8/8/8 
f 11/11/11 13/13/13 14/14/14 
f 15/15/15 7/7/7 8/8/8 
f 15/15/15 16/16/16 7/7/7 
f 7/7/7 16/16/16 2/2/2 
f 17/17/17 18/18/18 19/19/19 
f 17/17/17 20/20/20 18/18/18 
f 19/19/19 16/16/16 17/17/17 
f 17/17/17 14/14/14 20/20/20 
f 17/17/17 15/15/15 14/14/14 
f 15/15/15 17/17/17 16/16/16 
f 13/13/13 20/20/20 14/14/14 
f 20/20/20 13/13/13 12/12/12 
f 20/20/20 12/12/12 18/18/18 
f 19/19/19 2/2/2 16/16/16 
f 4/4/4 18/18/18 12/12/12 
f 18/18/18 4/4/4 3/3/3 
f 18/18/18 3/3/3 19/19/19 
f 2/2/2 19/19/19 3/3/3 
# 36 faces

