# Blender v2.93.1 OBJ File: ''
# www.blender.org
mtllib brazoDer.mtl
o arm0
v 5.000000 34.734028 -4.999996
v 5.000000 4.734028 -5.000001
v 5.000000 34.734028 -10.999996
v 5.000000 4.734029 -11.000001
v 1.000000 34.734028 -10.999996
v 1.000000 4.734029 -11.000001
v 1.000000 34.734028 -4.999996
v 1.000000 4.734028 -5.000001
vt 0.469238 0.788574
vt 0.469238 0.555176
vt 0.515137 0.788574
vt 0.515137 0.555176
vt 0.547363 0.788574
vt 0.547363 0.555176
vt 0.593262 0.788574
vt 0.593262 0.555176
vt 0.546387 0.789551
vt 0.546387 0.835449
vt 0.516113 0.789551
vt 0.516113 0.835449
vt 0.577637 0.835449
vt 0.577637 0.789551
vt 0.547363 0.835449
vt 0.547363 0.789551
vt 0.594238 0.788574
vt 0.594238 0.555176
vt 0.624512 0.788574
vt 0.624512 0.555176
vt 0.516113 0.788574
vt 0.516113 0.555176
vt 0.546387 0.788574
vt 0.546387 0.555176
vn 1.0000 0.0000 0.0000
vn -1.0000 0.0000 0.0000
vn 0.0000 1.0000 0.0000
vn 0.0000 -1.0000 -0.0000
vn 0.0000 -0.0000 1.0000
vn 0.0000 0.0000 -1.0000
usemtl 0
s 1
f 1/1/1 2/2/1 3/3/1
f 2/2/1 4/4/1 3/3/1
f 5/5/2 6/6/2 7/7/2
f 6/6/2 8/8/2 7/7/2
f 5/9/3 7/10/3 3/11/3
f 7/10/3 1/12/3 3/11/3
f 8/13/4 6/14/4 2/15/4
f 6/14/4 4/16/4 2/15/4
f 7/17/5 8/18/5 1/19/5
f 8/18/5 2/20/5 1/19/5
f 3/21/6 4/22/6 5/23/6
f 4/22/6 6/24/6 5/23/6
