# Blender v2.93.1 OBJ File: ''
# www.blender.org
mtllib pata.mtl
o Cow_Malla.003
v 2.526291 3.080385 11.368300
v 2.526291 3.080386 6.315722
v 7.578869 3.080386 6.315722
v 7.578869 3.080385 11.368300
v 2.526291 18.238123 11.368302
v 7.578869 18.238123 11.368302
v 7.578869 18.238119 6.315724
v 2.526291 18.238119 6.315724
vt 0.125000 0.687500
vt 0.125000 0.750000
vt 0.187500 0.750000
vt 0.187500 0.687500
vt 0.062500 0.687500
vt 0.125000 0.687500
vt 0.125000 0.750000
vt 0.062500 0.750000
vt 0.062500 0.500000
vt 0.125000 0.500000
vt 0.187500 0.500000
vt 0.187500 0.687500
vt 0.250000 0.500000
vt 0.250000 0.687500
vt 0.000000 0.500000
vt 0.000000 0.687500
vn 0.0000 -1.0000 -0.0000
vn 0.0000 1.0000 -0.0000
vn 0.0000 -0.0000 1.0000
vn 1.0000 -0.0000 0.0000
vn 0.0000 0.0000 -1.0000
vn -1.0000 0.0000 0.0000
usemtl vaca
s 1
f 1/1/1 2/2/1 3/3/1 4/4/1
f 5/5/2 6/6/2 7/7/2 8/8/2
f 1/9/3 4/10/3 6/6/3 5/5/3
f 4/10/4 3/11/4 7/12/4 6/6/4
f 3/11/5 2/13/5 8/14/5 7/12/5
f 2/15/6 1/9/6 5/5/6 8/16/6
