# Blender v2.93.1 OBJ File: ''
# www.blender.org
mtllib toad.mtl
o Toad.004_Toad.005
v -43.547173 75.304489 -3.765265
v -59.255188 74.298065 0.848353
v -59.418686 73.784073 -7.616797
v -61.236389 72.916840 5.043818
v -59.452625 78.515808 6.644528
v -63.213394 74.081070 -4.846087
v -63.239914 77.780472 6.303686
v -43.562599 77.455261 2.717184
v -38.291084 75.717209 -0.435345
v -43.964058 80.987595 -2.197784
v -43.729160 77.371475 -4.451520
v -43.744598 79.522232 2.030931
v -59.907562 83.683334 4.928892
v -68.019951 81.222641 1.408049
v -68.220581 73.923096 2.966006
v -68.213211 72.890656 -0.145536
v -59.873695 78.951538 -9.332456
v -68.007607 79.501999 -3.777890
v -60.299789 85.925171 -3.875542
vt 0.236816 0.929199
vt 0.236816 0.804199
vt 0.111816 0.804199
vt 0.111816 0.804199
vt 0.236816 0.929199
vt 0.236816 0.804199
vt 0.236816 0.804199
vt 0.236816 0.929199
vt 0.236816 0.929199
vt 0.111816 0.804199
vt 0.111816 0.804199
vt 0.236816 0.804199
vt 0.236816 0.804199
vt 0.111816 0.804199
vt 0.236816 0.804199
vt 0.111816 0.804199
vt 0.236816 0.929199
vt 0.236816 0.804199
vt 0.111816 0.804199
vt 0.236816 0.804199
vt 0.111816 0.804199
vt 0.236816 0.929199
vt 0.236816 0.929199
vt 0.236816 0.804199
vt 0.236816 0.804199
vt 0.111816 0.804199
vt 0.236816 0.929199
vt 0.236816 0.804199
vt 0.236816 0.929199
vt 0.111816 0.804199
vt 0.236816 0.804199
vt 0.111816 0.804199
vt 0.236816 0.929199
vt 0.111816 0.804199
vt 0.236816 0.929199
vt 0.111816 0.804199
vt 0.236816 0.929199
vt 0.236816 0.804199
vt 0.111816 0.804199
vt 0.236816 0.804199
vt 0.236816 0.804199
vt 0.236816 0.929199
vt 0.111816 0.804199
vt 0.236816 0.804199
vt 0.111816 0.804199
vt 0.236816 0.804199
vt 0.111816 0.804199
vt 0.236816 0.929199
vn 0.2972 -0.7947 -0.5293
vn -0.0065 -0.9734 0.2291
vn -0.0069 -0.7550 -0.6557
vn -0.0025 -0.7377 0.6751
vn 0.2652 -0.2056 0.9420
vn -0.3764 -0.8505 -0.3674
vn -0.3406 -0.4607 0.8196
vn 0.3074 -0.1613 0.9378
vn 0.9772 -0.2052 0.0545
vn 0.4876 0.8561 -0.1710
vn 0.4038 0.1440 -0.9035
vn 0.4758 0.6325 0.6111
vn 0.0094 0.6924 0.7215
vn -0.8312 0.4670 0.3017
vn -0.6992 -0.3798 0.6057
vn -0.6353 -0.7692 -0.0688
vn -0.2567 0.0527 -0.9650
vn -0.7850 0.1448 -0.6023
vn -0.1398 0.8908 -0.4324
s 1
f 1/1/1 2/2/2 3/3/3
f 4/4/4 2/5/2 5/6/5
f 3/3/3 2/5/2 6/7/6
f 7/8/7 2/2/2 4/4/4
f 8/9/8 2/2/2 9/10/9
f 5/11/5 2/5/2 8/12/8
f 9/10/9 2/5/2 1/13/1
f 6/14/6 2/5/2 7/15/7
f 10/16/10 9/17/9 11/18/11
f 12/19/12 8/9/8 9/20/9
f 1/21/1 11/22/11 9/20/9
f 9/10/9 10/23/10 12/24/12
f 5/11/5 8/9/8 13/25/13
f 8/26/8 12/27/12 13/25/13
f 5/11/5 7/8/7 4/28/4
f 5/11/5 13/29/13 7/15/7
f 11/30/11 1/1/1 3/31/3
f 12/19/12 10/23/10 13/25/13
f 13/32/13 14/33/14 7/15/7
f 15/34/15 16/35/16 7/15/7
f 16/36/16 6/37/6 7/15/7
f 15/34/15 7/8/7 14/38/14
f 17/39/17 6/37/6 18/40/18
f 3/3/3 6/37/6 17/41/17
f 16/36/16 18/42/18 6/7/6
f 14/43/14 18/42/18 16/44/16
f 15/34/15 14/33/14 16/44/16
f 18/45/18 14/33/14 19/46/19
f 19/47/19 14/33/14 13/25/13
f 17/39/17 11/22/11 3/31/3
f 18/45/18 19/48/19 17/41/17
f 17/39/17 19/48/19 11/18/11
f 10/16/10 19/48/19 13/25/13
f 19/47/19 10/23/10 11/18/11
