# Blender v2.93.1 OBJ File: ''
# www.blender.org
mtllib toad.mtl
o Toad.001_Toad.003
v 9.827076 138.178207 -6.177924
v 9.847383 135.116760 8.417244
v 19.341198 184.802887 -42.468517
v 38.782986 196.406708 -11.220144
v 48.076862 183.634583 -6.293662
v 10.666607 211.950958 2.703650
v -0.013646 208.535767 -15.361796
v -10.368111 211.919098 3.005343
v 21.568855 205.374817 -14.429284
v -38.527477 196.384491 -10.836040
v -19.177273 184.774002 -42.141151
v -24.100628 169.476593 -45.239605
v -47.810394 183.921921 -6.117702
v -24.094660 155.280624 -39.935093
v 23.985603 155.272354 -40.005562
v 19.358118 145.372192 -27.519115
v -19.160736 145.378815 -27.462711
v 23.979498 169.197449 -45.345463
v 38.799603 157.282471 3.493821
v 19.449375 168.892975 34.798908
v 9.320394 159.456650 20.628042
v -8.982910 159.459778 20.654915
v 48.082619 170.015900 -1.189056
v 24.372900 184.461304 37.932785
v -19.069057 168.864105 35.126247
v 20.772669 153.373688 6.038686
v 9.276652 146.823868 -9.129832
v -19.085979 208.294739 20.176828
v -21.320566 205.346741 -14.095510
v 19.432846 208.288208 20.120481
v -23.713448 198.394608 32.663265
v 24.366791 198.386292 32.592796
v -23.707323 184.469528 38.003159
v -10.419097 198.841660 -31.770187
v -47.804691 170.032364 -1.048600
v -38.510876 157.260223 3.877924
v -18.020430 152.367813 5.411870
v -9.026631 146.827011 -9.103025
v 10.616068 198.838043 -31.801062
v -15.267025 148.412674 20.870308
v -21.026339 142.710007 5.528952
v -11.717239 139.095612 20.471594
v -11.460258 133.365845 9.526416
v 0.023546 130.473938 16.845856
v 0.036748 139.267426 25.436598
v 0.041422 151.079712 27.810158
v 12.049688 139.091553 20.436790
v 0.042775 158.193604 28.190708
v 15.602715 148.407349 20.825075
v 21.317076 142.702744 5.466944
v 11.760339 133.361847 9.492352
v -15.263939 161.485977 22.031410
v 0.040820 167.558594 26.110893
v 15.605783 161.480682 21.986156
v -7.922795 132.711243 -0.207778
v -15.307260 139.630127 -6.730190
v -0.011064 131.465591 -7.545947
v -23.488361 155.268036 2.217739
v 23.772379 155.259918 2.148481
v -16.680092 149.456741 -12.329415
v -0.021354 137.712585 -15.269094
v 8.195010 132.708466 -0.231395
v -0.026554 146.548828 -19.622429
v 15.562435 139.624847 -6.775374
v 16.921459 149.450974 -12.378658
v 31.801628 136.430817 -3.875542
vt 0.630615 0.391357
vt 0.755615 0.516357
vt 0.755615 0.391357
vt 0.630615 0.391357
vt 0.755615 0.516357
vt 0.755615 0.391357
vt 0.630615 0.391357
vt 0.755615 0.391357
vt 0.630615 0.391357
vt 0.755615 0.516357
vt 0.755615 0.391357
vt 0.630615 0.391357
vt 0.755615 0.516357
vt 0.630615 0.391357
vt 0.755615 0.516357
vt 0.755615 0.391357
vt 0.630615 0.391357
vt 0.755615 0.516357
vt 0.630615 0.391357
vt 0.755615 0.516357
vt 0.445230 0.460865
vt 0.372267 0.197287
vt 0.212507 0.266851
vt 0.066145 0.199682
vt 0.651681 0.464961
vt 0.561545 0.135249
vt 0.064150 0.056290
vt 0.150230 0.526257
vt 0.113586 0.557705
vt 0.210712 0.521623
vt 0.064014 0.486045
vt 0.128609 0.486561
vt 0.468416 0.162551
vt 0.343242 0.096682
vt 0.232094 0.127822
vt 0.612035 0.337038
vt 0.582854 0.187170
vt 0.438000 0.282411
vt 0.711105 0.280258
vt 0.690282 0.209318
vt 0.555662 0.144004
vt 0.691779 0.298347
vt 0.453694 0.148087
vt 0.337399 0.196145
vt 0.634426 0.383538
vt 0.257458 0.260992
vt 0.554486 0.448385
vt 0.231190 0.329269
vt 0.294124 0.376307
vt 0.218553 0.122546
vt 0.607089 0.475241
vt 0.395393 0.141199
vt 0.736545 0.336650
vt 0.775844 0.256656
vt 0.372829 0.046115
vt 0.266656 0.122505
vt 0.629429 0.413028
vt 0.186373 0.237627
vt 0.462103 0.446480
vt 0.535611 0.393438
vt 0.194697 0.262538
vt 0.477524 0.470465
vt 0.246003 0.487779
vt 0.310117 0.488629
vt 0.222357 0.453492
vt 0.261026 0.416635
vt 0.163882 0.453396
vt 0.137957 0.416022
vt 0.268206 0.209496
vt 0.600010 0.309360
vt 0.384964 0.161784
vt 0.738436 0.373366
vt 0.430418 0.080852
vt 0.299320 0.154533
vt 0.606858 0.447381
vt 0.210575 0.250178
vt 0.458302 0.484479
vt 0.642589 0.211743
vt 0.523009 0.129981
vt 0.476287 0.315873
vt 0.607039 0.145025
vt 0.343582 0.157158
vt 0.730176 0.309048
vt 0.352315 0.461331
vt 0.113467 0.174830
vt 0.466794 0.465907
vt 0.611549 0.411432
vt 0.212131 0.263109
vt 0.610127 0.301001
vt 0.391448 0.147941
vt 0.277877 0.200112
vt 0.639113 0.200146
vt 0.549824 0.390909
vt 0.198023 0.261563
vt 0.469970 0.452360
vt 0.718150 0.336746
vt 0.401103 0.083860
vt 0.294022 0.158879
vt 0.470856 0.838720
vt 0.427863 0.910905
vt 0.553406 0.921725
vt 0.569520 0.953885
vt 0.715571 0.937552
vt 0.684379 0.863536
vt 0.646364 0.773936
vt 0.839454 0.861338
vt 0.622624 0.718868
vt 0.843793 0.759598
vt 0.935986 0.803688
vt 0.850896 0.893952
vt 0.428382 0.739546
vt 0.593432 0.649936
vt 0.802602 0.660162
vt 0.261325 0.917439
vt 0.318775 0.850292
vt 0.350716 0.919163
vt 0.358594 0.828184
vt 0.929226 0.707210
vt 0.143524 0.921015
vt 0.161186 0.835528
vt 0.064014 0.953222
vt 0.165920 0.724221
vt 0.359992 0.759497
vt 0.428022 0.858448
vt 0.261325 0.917439
vt 0.143524 0.921015
vt 0.451811 0.776204
vt 0.318775 0.850292
vt 0.359992 0.759497
vt 0.161186 0.835528
vt 0.165920 0.724221
vn 0.3555 0.5012 -0.7889
vn 0.6650 0.7081 -0.2377
vn 0.9535 0.2856 -0.0966
vn 0.1268 0.9918 -0.0178
vn -0.0037 0.9360 -0.3521
vn -0.2267 0.9716 -0.0684
vn 0.3518 0.8936 -0.2789
vn -0.6610 0.6930 -0.2878
vn -0.3077 0.4967 -0.8116
vn -0.4655 0.0016 -0.8851
vn -0.9524 0.2823 -0.1154
vn -0.4911 -0.5727 -0.6564
vn 0.4630 -0.5774 -0.6725
vn 0.2317 -0.9560 -0.1802
vn -0.3253 -0.9367 -0.1293
vn 0.4868 -0.0014 -0.8735
vn 0.5504 -0.7964 0.2505
vn 0.3187 -0.6451 0.6944
vn 0.1493 -0.8446 0.5142
vn -0.0396 -0.8484 0.5279
vn 0.9519 -0.2929 0.0903
vn 0.4923 -0.0041 0.8704
vn -0.2054 -0.6157 0.7608
vn 0.2504 -0.9118 0.3256
vn 0.0857 -0.9884 0.1250
vn -0.3563 0.8967 0.2625
vn -0.3570 0.8542 -0.3780
vn 0.3063 0.9073 0.2879
vn -0.4867 0.5733 0.6592
vn 0.4656 0.5809 0.6677
vn -0.4646 0.0129 0.8854
vn -0.1323 0.7575 -0.6393
vn -0.9531 -0.2768 0.1227
vn -0.5565 -0.7565 0.3436
vn -0.2033 -0.8987 0.3886
vn -0.1632 -0.9722 0.1679
vn 0.2221 0.7780 -0.5878
vn -0.6915 -0.1377 0.7092
vn -0.8529 -0.5146 0.0883
vn -0.5549 -0.5042 0.6617
vn -0.5467 -0.8266 0.1337
vn -0.0032 -0.9573 0.2892
vn -0.0025 -0.4719 0.8816
vn -0.0020 -0.1499 0.9887
vn 0.5525 -0.5057 0.6626
vn -0.0016 0.0270 0.9996
vn 0.6912 -0.1377 0.7094
vn 0.9019 -0.4278 0.0590
vn 0.5614 -0.8233 0.0836
vn -0.5900 0.0320 0.8067
vn -0.0007 0.2168 0.9762
vn 0.5891 0.0320 0.8074
vn -0.4452 -0.8838 -0.1439
vn -0.6740 -0.5990 -0.4323
vn -0.0701 -0.9358 -0.3455
vn -0.9824 -0.1844 0.0308
vn 0.9784 -0.1350 0.1566
vn -0.6340 -0.4169 -0.6514
vn 0.0162 -0.6620 -0.7493
vn 0.4023 -0.8799 -0.2529
vn 0.1698 -0.4695 -0.8665
vn 0.6086 -0.6350 -0.4757
vn 0.7777 -0.3776 -0.5026
usemtl Material02.001
s 1
f 3/1/1 4/2/2 5/3/3
f 6/4/4 7/5/5 8/6/6
f 9/7/7 7/5/5 6/8/4
f 10/9/8 11/10/9 12/11/10
f 13/12/11 10/13/8 12/11/10
f 14/14/12 15/15/13 16/16/14
f 17/17/15 14/18/12 16/16/14
f 18/19/16 3/20/1 5/3/3
f 19/21/17 20/22/18 21/23/19
f 21/23/19 20/22/18 22/24/20
f 19/21/17 23/25/21 20/22/18
f 23/25/21 24/26/22 20/22/18
f 20/22/18 25/27/23 22/24/20
f 20/22/18 24/26/22 25/27/23
f 26/28/24 19/29/17 21/30/19
f 16/31/14 19/29/17 26/28/24
f 27/32/25 16/31/14 26/28/24
f 28/33/26 10/34/8 13/35/11
f 8/36/6 7/37/5 29/38/27
f 30/39/28 6/40/4 28/33/26
f 6/40/4 8/41/6 28/33/26
f 30/42/28 28/43/26 31/44/29
f 32/45/30 30/42/28 31/44/29
f 32/45/30 31/44/29 33/46/31
f 24/47/22 32/45/30 33/46/31
f 24/47/22 33/46/31 25/48/23
f 8/36/6 29/38/27 10/49/8
f 10/49/8 29/38/27 11/50/9
f 28/51/26 8/36/6 10/49/8
f 29/38/27 7/37/5 34/52/32
f 31/53/29 28/54/26 13/55/11
f 31/53/29 13/55/11 35/56/33
f 33/57/31 31/53/29 35/56/33
f 33/57/31 35/56/33 36/58/34
f 29/38/27 34/52/32 11/50/9
f 23/59/21 5/60/3 24/61/22
f 25/62/23 33/57/31 36/58/34
f 22/63/20 25/64/23 37/65/35
f 25/64/23 36/66/34 37/65/35
f 37/65/35 36/66/34 38/67/36
f 36/66/34 17/68/15 38/67/36
f 5/60/3 32/69/30 24/61/22
f 38/67/36 17/68/15 27/32/25
f 5/60/3 4/70/2 32/69/30
f 4/70/2 30/71/28 32/69/30
f 13/72/11 12/73/10 14/74/12
f 35/75/33 13/72/11 14/74/12
f 35/75/33 14/74/12 17/76/15
f 36/77/34 35/75/33 17/76/15
f 17/68/15 16/31/14 27/32/25
f 4/70/2 9/78/7 30/71/28
f 9/78/7 6/79/4 30/71/28
f 39/80/37 7/81/5 9/82/7
f 34/83/32 39/80/37 3/84/1
f 3/84/1 39/80/37 4/85/2
f 39/80/37 9/82/7 4/85/2
f 34/83/32 7/81/5 39/80/37
f 16/86/14 15/87/13 19/88/17
f 11/89/9 3/90/1 18/91/16
f 11/89/9 34/92/32 3/90/1
f 12/93/10 11/89/9 18/91/16
f 12/93/10 18/91/16 15/94/13
f 14/95/12 12/93/10 15/94/13
f 18/96/16 5/97/3 23/98/21
f 15/87/13 18/96/16 23/98/21
f 15/87/13 23/98/21 19/88/17
f 40/99/38 41/100/39 42/101/40
f 42/101/40 43/102/41 44/103/42
f 43/102/41 42/101/40 41/100/39
f 45/104/43 46/105/44 42/101/40
f 45/104/43 42/101/40 44/103/42
f 40/99/38 42/101/40 46/105/44
f 45/104/43 47/106/45 46/105/44
f 47/106/45 45/104/43 44/103/42
f 46/105/44 48/107/46 40/99/38
f 46/105/44 49/108/47 48/107/46
f 49/108/47 46/105/44 47/106/45
f 49/108/47 47/106/45 50/109/48
f 51/110/49 47/106/45 44/103/42
f 51/110/49 50/109/48 47/106/45
f 52/111/50 40/99/38 48/107/46
f 53/112/51 48/107/46 54/113/52
f 54/113/52 48/107/46 49/108/47
f 48/107/46 53/112/51 52/111/50
f 55/114/53 56/115/54 57/116/55
f 52/111/50 58/117/56 40/99/38
f 41/100/39 40/99/38 58/117/56
f 54/113/52 49/108/47 59/118/57
f 50/109/48 59/118/57 49/108/47
f 43/119/41 41/120/39 55/114/53
f 43/119/41 55/114/53 44/121/42
f 41/120/39 56/115/54 55/114/53
f 55/114/53 57/116/55 44/121/42
f 41/120/39 58/122/56 56/115/54
f 58/122/56 60/123/58 56/115/54
f 56/115/54 61/124/59 57/116/55
f 56/115/54 60/123/58 61/124/59
f 57/116/55 62/125/60 44/121/42
f 62/125/60 51/126/49 44/121/42
f 60/123/58 63/127/61 61/124/59
f 57/116/55 61/124/59 62/125/60
f 61/124/59 64/128/62 62/125/60
f 61/124/59 63/127/61 64/128/62
f 63/127/61 65/129/63 64/128/62
f 62/125/60 64/128/62 51/126/49
f 64/128/62 50/130/48 51/126/49
f 64/128/62 65/129/63 50/130/48
f 65/129/63 59/131/57 50/130/48
l 1 2
