# Blender v2.93.1 OBJ File: ''
# www.blender.org
mtllib toad.mtl
o Toad.006_Toad.007
v 56.226227 46.143574 20.360374
v 58.485165 55.101151 11.675685
v 54.421574 54.860466 19.041578
v 44.932598 54.566631 20.180264
v 44.026146 45.765797 21.824404
v 61.612709 46.429802 12.560570
v 56.693768 46.511829 -0.880897
v 51.235695 46.462269 -7.379351
v 36.941391 45.665855 15.521167
v 38.529160 45.949352 1.298848
v 42.288956 46.185230 -6.305720
v 39.236084 54.505104 13.985513
v 40.221283 53.107246 1.189623
v 43.091545 52.199455 -4.947007
v 50.411640 52.426098 -5.825413
v 54.590279 53.552177 -0.534664
v 50.986710 56.173477 -0.066094
v 43.843113 59.585331 12.397144
v 53.332062 59.879166 11.258438
v 43.666645 55.946793 0.812238
vt 0.878484 0.530490
vt 0.920109 0.569654
vt 0.880870 0.568601
vt 0.858569 0.567317
vt 0.849812 0.528838
vt 0.922020 0.531742
vt 0.971026 0.532100
vt 0.989075 0.531884
vt 0.864038 0.528402
vt 0.928336 0.529641
vt 0.968049 0.530672
vt 0.874871 0.567048
vt 0.931908 0.560936
vt 0.963655 0.556967
vt 0.980858 0.557958
vt 0.965677 0.562882
vt 0.957052 0.574342
vt 0.890168 0.589259
vt 0.912469 0.590544
vt 0.939849 0.573351
vn 0.3262 -0.8224 0.4661
vn 0.8766 0.4745 0.0807
vn 0.3796 0.6436 0.6646
vn -0.3154 0.4483 0.8364
vn -0.2727 -0.3331 0.9026
vn 0.9704 -0.2146 0.1108
vn 0.8412 -0.2295 -0.4897
vn 0.2914 -0.6503 -0.7016
vn -0.9027 -0.2900 0.3177
vn -0.7316 -0.6413 -0.2312
vn -0.5378 -0.3085 -0.7846
vn -0.8042 0.5718 0.1624
vn -0.8685 0.4091 -0.2800
vn -0.4062 0.6406 -0.6516
vn 0.3069 0.4901 -0.8158
vn 0.6875 0.5717 -0.4478
vn 0.1162 0.8879 -0.4451
vn -0.2662 0.9513 0.1556
vn 0.4084 0.9127 -0.0130
vn -0.4609 0.8244 -0.3284
s 1
f 1/1/1 2/2/2 3/3/3
f 1/1/1 4/4/4 5/5/5
f 1/1/1 3/3/3 4/4/4
f 1/1/1 6/6/6 2/2/2
f 1/1/1 7/7/7 6/6/6
f 1/1/1 8/8/8 7/7/7
f 1/1/1 5/5/5 9/9/9
f 1/1/1 9/9/9 10/10/10
f 1/1/1 10/10/10 11/11/11
f 1/1/1 11/11/11 8/8/8
f 9/9/9 12/12/12 13/13/13
f 9/9/9 13/13/13 10/10/10
f 9/9/9 4/4/4 12/12/12
f 9/9/9 5/5/5 4/4/4
f 11/11/11 10/10/10 13/13/13
f 7/7/7 2/2/2 6/6/6
f 11/11/11 14/14/14 15/15/15
f 11/11/11 15/15/15 8/8/8
f 11/11/11 13/13/13 14/14/14
f 15/15/15 7/7/7 8/8/8
f 15/15/15 16/16/16 7/7/7
f 7/7/7 16/16/16 2/2/2
f 17/17/17 18/18/18 19/19/19
f 17/17/17 20/20/20 18/18/18
f 19/19/19 16/16/16 17/17/17
f 17/17/17 14/14/14 20/20/20
f 17/17/17 15/15/15 14/14/14
f 15/15/15 17/17/17 16/16/16
f 13/13/13 20/20/20 14/14/14
f 20/20/20 13/13/13 12/12/12
f 20/20/20 12/12/12 18/18/18
f 19/19/19 2/2/2 16/16/16
f 4/4/4 18/18/18 12/12/12
f 18/18/18 4/4/4 3/3/3
f 18/18/18 3/3/3 19/19/19
f 2/2/2 19/19/19 3/3/3
